<svg xmlns="http://www.w3.org/2000/svg" viewBox="0 0 32 32" fill="none" role="img" aria-label="HOCON">
  <path d="M12.5 4C9.5 4 9 6 9 8.5V12c0 2-1 3-3 3v2c2 0 3 1 3 3v3.5C9 26 9.5 28 12.5 28"
        stroke="currentColor" stroke-width="2.25" stroke-linecap="round" stroke-linejoin="round"/>
  <path d="M19.5 4C22.5 4 23 6 23 8.5V12c0 2 1 3 3 3v2c-2 0-3 1-3 3v3.5C23 26 22.5 28 19.5 28"
        stroke="currentColor" stroke-width="2.25" stroke-linecap="round" stroke-linejoin="round"/>
  <circle cx="16" cy="16" r="2" fill="currentColor"/>
</svg>
